<?xml version="1.0" encoding="UTF-8" standalone="no"?>
<svg
   xmlns:dc="http://purl.org/dc/elements/1.1/"
   xmlns:cc="http://creativecommons.org/ns#"
   xmlns:rdf="http://www.w3.org/1999/02/22-rdf-syntax-ns#"
   xmlns:svg="http://www.w3.org/2000/svg"
   xmlns="http://www.w3.org/2000/svg"
   xmlns:sodipodi="http://sodipodi.sourceforge.net/DTD/sodipodi-0.dtd"
   xmlns:inkscape="http://www.inkscape.org/namespaces/inkscape"
   version="1.1"
   id="svg6517"
   sodipodi:docname="docker.svg"
   inkscape:version="0.48.4 r9939"
   viewBox="0 0 400 400"
   class="clearos-svg clearfoundation app-vendor-clearfoundation app-free app-category-server app-sub-category-database"
   xml:space="preserve"
   preserveAspectRatio="xMinYMin"
   width="100%"
   height="100%"><metadata
     id="metadata3121"><rdf:RDF><cc:Work
         rdf:about=""><dc:format>image/svg+xml</dc:format><dc:type
           rdf:resource="http://purl.org/dc/dcmitype/StillImage" /></cc:Work></rdf:RDF></metadata><defs
     id="defs3119" /><filter
     id="filter891"
     inkscape:label="Badge Shadow"
     inkscape:collect="always"><feGaussianBlur
       id="feGaussianBlur893"
       stdDeviation="0.71999962"
       inkscape:collect="always" /></filter><sodipodi:namedview
     id="base"
     fit-margin-top="0"
     fit-margin-left="0"
     showborder="true"
     inkscape:cx="165.70074"
     inkscape:cy="166.13663"
     inkscape:zoom="0.72028304"
     showgrid="true"
     borderopacity="1.0"
     bordercolor="#666666"
     pagecolor="#ffffff"
     showguides="true"
     inkscape:window-maximized="1"
     inkscape:showpageshadow="false"
     inkscape:guide-bbox="true"
     inkscape:document-units="px"
     fit-margin-bottom="0"
     fit-margin-right="0"
     inkscape:current-layer="layer3"
     inkscape:window-y="25"
     inkscape:window-x="0"
     inkscape:window-height="1028"
     inkscape:window-width="1920"
     inkscape:pageshadow="2"
     inkscape:pageopacity="0.0"><inkscape:grid
       type="xygrid"
       id="grid821" /><sodipodi:guide
       id="guide823"
       position="16,48"
       orientation="1,0" /><sodipodi:guide
       id="guide825"
       position="64,80"
       orientation="0,1" /><sodipodi:guide
       id="guide827"
       position="80,40"
       orientation="1,0" /><sodipodi:guide
       id="guide829"
       position="64,16"
       orientation="0,1" /></sodipodi:namedview><g
     id="layer2"
     inkscape:label="BADGE"
     sodipodi:insensitive="true"
     inkscape:groupmode="layer"
     display="none"><g
       id="g4394"
       transform="translate(-340.00001,-581)"
       display="inline"><g
         id="g855"><g
           id="g870"
           inkscape:groupmode="maskhelper"
           opacity="0.6"
           filter="url(#filter891)"><path
             id="path844_2_"
             sodipodi:type="arc"
             sodipodi:rx="12"
             sodipodi:cy="552.36218"
             sodipodi:cx="252"
             sodipodi:ry="12"
             d="m 264,552.36218 c 0,6.62742 -5.37258,12 -12,12 -6.62742,0 -12,-5.37258 -12,-12 0,-6.62741 5.37258,-12 12,-12 6.62742,0 12,5.37259 12,12 z" /></g><g
           id="g862"><path
             id="path4398"
             sodipodi:type="arc"
             sodipodi:rx="12"
             sodipodi:cy="552.36218"
             sodipodi:cx="252"
             sodipodi:ry="12"
             fill="#F5F5F5"
             d="m 264,552.36218 c 0,6.62742 -5.37258,12 -12,12 -6.62742,0 -12,-5.37258 -12,-12 0,-6.62741 5.37258,-12 12,-12 6.62742,0 12,5.37259 12,12 z" /><path
             id="path4400"
             sodipodi:type="arc"
             sodipodi:rx="12"
             sodipodi:cy="552.36218"
             sodipodi:cx="252"
             sodipodi:ry="12"
             fill="#DD4814"
             d="m 264,552.36218 c 0,6.62742 -5.37258,12 -12,12 -6.62742,0 -12,-5.37258 -12,-12 0,-6.62741 5.37258,-12 12,-12 6.62742,0 12,5.37259 12,12 z" /><path
             id="path4459"
             sodipodi:sides="5"
             sodipodi:r1="7.2431178"
             sodipodi:r2="4.3458705"
             sodipodi:type="star"
             sodipodi:arg1="1.0471976"
             sodipodi:arg2="1.6755161"
             sodipodi:cy="589.50385"
             sodipodi:cx="666.19574"
             inkscape:flatsided="false"
             inkscape:rounded="0.1"
             inkscape:randomized="0"
             fill="#F5F5F5"
             d="m 669.8173,595.77657 c -0.39132,0.22593 -3.62645,-1.90343 -4.07583,-1.95066 -0.44938,-0.0472 -4.05653,1.36297 -4.39232,1.06062 -0.3358,-0.30235 0.68963,-4.03715 0.59569,-4.47913 -0.0939,-0.44198 -2.5498,-3.43681 -2.36602,-3.8496 0.18379,-0.41279 4.05267,-0.59166 4.44398,-0.81759 0.39132,-0.22593 2.48067,-3.48704 2.93005,-3.4398 0.44938,0.0472 1.81505,3.67147 2.15084,3.97382 0.3358,0.30236 4.08294,1.2817 4.17689,1.72369 0.0939,0.44198 -2.9309,2.86076 -3.11469,3.27355 -0.18379,0.41279 0.0427,4.27917 -0.34859,4.5051 z" /></g></g></g></g><g
     id="layer3"
     inkscape:label="PLACE YOUR PICTOGRAM HERE"
     inkscape:groupmode="layer"><g
       id="g4113"
       transform="translate(666.15523,-204.08644)"><path
         style="fill:#686868;fill-opacity:1;stroke:none"
         inkscape:connector-curvature="0"
         d="m -602.85811,496.51649 0,-24.99438 c 0,-3.2822 2.05342,-5.92219 5.4526,-5.92219 l 0.94244,0 c 3.39836,0 5.44196,2.64163 5.44196,5.92219 l 0,52.61976 c 0,12.83179 -6.34023,23.04079 -17.38613,29.54544 -5.12208,3.01386 -10.78166,4.56006 -16.71938,4.56006 l -2.3471,0 c -12.83425,0 -23.03179,-6.34431 -29.54626,-17.38448 -3.02285,-5.12537 -4.55842,-10.77675 -4.55842,-16.72102 l 0,-2.34548 c 0,-12.83588 6.3435,-23.03913 17.38121,-29.55526 5.12617,-3.02612 10.77756,-4.56005 16.72347,-4.56005 l 2.3471,0 c 8.68571,0 16.0551,3.36645 22.26851,8.83541 l 0,0 z m -46.88493,26.4506 c 0,9.269 4.49297,16.23752 12.615,20.68141 3.28383,1.79734 6.84989,2.76269 10.59676,2.76269 9.09803,0 15.84566,-4.29171 20.50061,-12.00143 2.16466,-3.58734 3.17256,-7.51009 3.17256,-11.68237 0,-8.03531 -3.80414,-14.30518 -10.27853,-18.96259 -3.92602,-2.82325 -8.34536,-4.23936 -13.16476,-4.23936 -9.91611,0 -17.05233,5.00918 -21.33587,13.90922 -1.44557,3.00895 -2.10577,6.20443 -2.10577,9.53243 l 0,0 z m 99.78531,-35.28601 1.64028,0 c 13.71452,0 24.14357,6.65274 30.75376,18.6239 2.64326,4.78911 4.05693,10.0151 4.05693,15.49141 l 0,2.34548 c 0,12.83098 -6.32714,23.05552 -17.39103,29.54708 -5.12208,3.00404 -10.78002,4.55842 -16.71611,4.55842 l -2.34383,0 c -12.83425,0 -23.03343,-6.34431 -29.54626,-17.38448 -3.02286,-5.12537 -4.56169,-10.77675 -4.56169,-16.72102 l 0,-2.34548 c 0,-12.83751 6.36721,-23.00724 17.37794,-29.55199 5.11962,-3.04248 10.78083,-4.56332 16.73001,-4.56332 l 0,0 z m -22.27259,35.28601 c 0,8.99739 4.41607,15.61577 12.01533,20.26908 3.56852,2.18595 7.49783,3.17502 11.66764,3.17502 8.89024,0 15.46115,-4.50769 20.03512,-12.01124 2.18103,-3.57753 3.16765,-7.50683 3.16765,-11.67256 0,-8.36583 -4.02993,-14.75759 -10.91826,-19.38964 -3.77552,-2.54018 -7.97805,-3.81231 -12.52421,-3.81231 -9.9161,0 -17.05233,5.00918 -21.33424,13.90922 -1.44883,3.00895 -2.10903,6.20443 -2.10903,9.53243 l 0,0 z m 107.93106,-22.49594 c -1.78671,-0.83691 -5.13271,-1.11505 -7.06423,-1.18868 -9.88912,-0.37223 -17.04416,5.19653 -21.2418,13.92067 -1.44885,3.00896 -2.11068,6.19461 -2.11068,9.52425 0,10.13863 5.32252,17.23641 14.37226,21.5633 3.30592,1.57974 7.57391,1.8808 11.18662,1.8808 3.17829,0 7.66799,-1.94788 10.48795,-3.2871 l 0.48923,-0.23152 2.18758,0 0.24133,0.049 c 2.69234,0.55957 4.7245,2.26611 4.7245,5.16299 l 0,1.17151 c 0,7.20576 -13.17049,8.85667 -18.19605,9.20681 -17.73462,1.22797 -30.99836,-8.51226 -36.055,-25.42879 -0.87864,-2.93614 -1.27378,-5.85428 -1.27378,-8.91559 l 0,-2.3422 c 0,-12.83588 6.36887,-23.00232 17.37794,-29.54299 5.11964,-3.04002 10.78084,-4.56659 16.72837,-4.56659 l 2.34549,0 c 6.30831,0 12.11922,1.79162 17.32803,5.34951 l 0.42868,0.29614 0.26997,0.44588 c 0.56203,0.93262 1.04635,2.01005 1.04635,3.1202 l 0,1.17151 c 0,3.02122 -2.2604,4.64595 -4.98955,5.17198 l -0.2258,0.04 -0.69948,0 c -1.76708,0 -5.78147,-1.82925 -7.35793,-2.57126 l 0,0 z m 38.3923,8.01486 c 4.59687,-4.6034 9.21173,-9.19864 13.87733,-13.72678 1.30077,-1.26233 6.22405,-6.60856 8.16211,-6.60856 l 2.12051,0 0.24134,0.049 c 2.6997,0.56121 4.72284,2.27103 4.72284,5.17281 l 0,1.17068 c 0,1.97979 -2.31848,4.27945 -3.59716,5.63422 -2.71933,2.88214 -5.58266,5.67102 -8.36581,8.49426 l -14.29946,14.51625 c 6.15697,6.17087 12.30821,12.34829 18.41529,18.56662 1.68936,1.71964 3.37953,3.44172 5.04272,5.18671 0.58821,0.61849 1.4562,1.38832 1.94952,2.2465 0.52931,0.80254 0.8549,1.70817 0.8549,2.67516 l 0,1.22387 -0.0687,0.28142 c -0.66512,2.69972 -2.37903,4.87911 -5.3716,4.87911 l -0.94164,0 c -1.95851,0 -4.16981,-2.21621 -5.5123,-3.48099 -2.76271,-2.60645 -5.43296,-5.34705 -8.14249,-8.00913 l -9.08739,-8.9205 0,14.25775 c 0,3.28381 -2.05586,5.92299 -5.45177,5.92299 l -0.93262,0 c -3.39919,0 -5.45178,-2.63918 -5.45178,-5.92299 l 0,-80.34251 c 0,-3.28546 2.05424,-5.91236 5.45178,-5.91236 l 0.93262,0 c 3.39591,0 5.45177,2.6269 5.45177,5.91236 l 0,36.73403 0,0 z m 147.52515,-20.33534 1.17478,0 c 3.55054,0 5.91973,2.39211 5.91973,5.92137 0,4.90037 -4.68439,6.15451 -8.73806,6.15451 -5.31597,0 -10.3906,3.21837 -14.05484,6.8278 -4.56987,4.50442 -6.5701,10.27443 -6.5701,16.6163 l 0,28.65535 c 0,3.28547 -2.05015,5.92137 -5.45342,5.92137 l -0.93344,0 c -3.40164,0 -5.45177,-2.6359 -5.45177,-5.92137 l 0,-30.29971 c 0,-11.63575 5.66447,-21.13299 15.10608,-27.79473 5.63995,-3.98002 12.09716,-6.08089 19.00104,-6.08089 l 0,0 z m -84.12863,56.78714 c 4.30726,1.50364 9.21909,1.28932 13.63843,0.51949 2.25958,-0.96044 8.04105,-3.4818 10.16727,-3.11284 l 0.33214,0.0556 0.30516,0.15061 c 1.2975,0.62912 2.53772,1.5192 3.19956,2.8396 1.54947,3.09813 0.80501,6.21016 -2.23749,7.96822 l -1.0128,0.58494 c -11.22832,6.48095 -23.17003,5.58268 -34.36155,-0.4704 -5.35115,-2.89196 -9.4449,-7.18694 -12.46448,-12.42111 l -0.70682,-1.22386 c -7.20741,-12.48247 -6.23471,-25.61369 1.89388,-37.48423 2.80688,-4.10274 6.47439,-7.27285 10.76284,-9.75167 l 1.62227,-0.9359 c 10.57386,-6.1038 21.90609,-5.68657 32.76629,-0.32887 5.83872,2.8805 10.56975,7.17549 13.82986,12.82197 l 0.58575,1.01689 c 2.36839,4.10275 -0.69946,7.67863 -3.8663,10.12227 -3.67488,2.83551 -7.38575,6.24697 -10.90847,9.28782 -7.85369,6.77954 -15.69593,13.57545 -23.54554,20.36153 l 0,0 z m -10.16563,-7.13951 c 8.78469,-7.53218 17.57101,-15.06927 26.33034,-22.63172 2.9934,-2.58192 6.27641,-5.26117 9.24691,-7.97642 -2.38393,-3.0024 -6.36395,-5.16708 -9.74676,-6.45803 -6.82618,-2.60154 -13.55908,-1.72781 -19.81995,1.88652 -8.19649,4.73186 -11.68647,12.26813 -11.37969,21.64593 0.12022,3.69288 1.11425,7.25159 3.0744,10.39388 0.69047,1.1077 1.46194,2.14749 2.29475,3.13984 l 0,0 z"
         id="path6-7" /><path
         style="fill:#686868;fill-opacity:1;stroke:none"
         d="m -478.46875,230.75 0,34.9375 -69.84375,0 0,34.90625 -34.9375,0 0,35.71875 -29.875,0 -0.5,5.28125 c -1.64109,17.62991 0.779,35.26838 8.0625,51.375 l 3.15625,6.40625 0.34375,0.59375 c 21.54695,36.59087 59.38327,52 100.625,52 79.82791,0 145.66543,-35.64852 175.90625,-110.96875 20.20936,1.05779 40.89378,-4.92156 50.78125,-24.21875 l 2.5,-4.9375 -4.78125,-2.78125 c -11.69138,-6.74763 -27.26749,-7.65149 -40.53125,-3.75 -1.6329,-14.09739 -10.89062,-26.46236 -21.90625,-35.3125 l -4.375,-3.53125 -3.6875,4.25 c -7.37593,8.52944 -9.56875,22.72718 -8.5625,33.625 0.74119,8.01241 3.25685,16.12492 8.1875,22.5625 -3.7436,2.25221 -7.98612,4.05689 -11.78125,5.34375 -7.72362,2.61708 -16.12567,4.0625 -24.28125,4.0625 l -17.65625,0 0,-35.71875 -34.9375,0 0,-69.84375 -41.90625,0 z m 5.8125,5.8125 30.28125,0 0,30.28125 -30.28125,0 0,-30.28125 z M -542.5,271.5 l 30.28125,0 0,30.28125 -30.28125,0 0,-30.28125 z m 34.9375,0 30.25,0 0,30.28125 -30.25,0 0,-30.28125 z m 34.90625,0 30.28125,0 0,30.28125 -30.28125,0 0,-30.28125 z m 129.53125,3.03125 c 8.44763,6.78772 22.06095,21.08031 19.71875,39.28125 10.63031,-5.34297 29.11203,-7.97233 43.46875,0.3125 -9.01294,17.59392 -28.82073,22.83434 -49.4375,20.71875 -29.05867,76.99651 -94.69542,111.3125 -172.0625,111.3125 -36.5557,0 -65.72329,-12.59886 -84.375,-33.5625 l 0.15625,-0.0625 c 5.37487,0.27245 10.18094,0.34375 15.0625,0.34375 4.46351,0 8.83033,-0.0546 12.875,-0.28125 0.35095,-0.0195 0.77568,-0.0413 1.125,-0.0625 0.002,-5.7e-4 0.71927,-0.0666 0.8125,-0.0937 10.20069,-0.63891 18.11018,-2.07799 25.5,-4.1875 1.35068,-0.38613 2.6521,-0.8156 3.90625,-1.25 1.40302,-0.48676 2.17263,-2.00321 1.6875,-3.40625 -0.48594,-1.40302 -2.03284,-2.14465 -3.4375,-1.65625 -9.43425,3.26911 -21.86918,5.06837 -37.125,5.40625 -7.76288,0.1718 -16.26602,-0.0343 -25.46875,-0.625 -1.90369,-2.54263 -3.6688,-5.20098 -5.28125,-7.9375 l -2.53125,-4.65625 c -7.69662,-15.13146 -11.06961,-32.80344 -9.28125,-52 l 223.84375,0 c 18.38911,0 36.35209,-6.86686 44.875,-14.4375 -15.27218,-12.41866 -13.76575,-41.90174 -4.03125,-53.15625 z m -234.3125,31.90625 30.28125,0 0,30.25 -30.28125,0 0,-30.25 z m 34.9375,0 30.28125,0 0,30.25 -30.28125,0 0,-30.25 z m 34.9375,0 30.25,0 0,30.25 -30.25,0 0,-30.25 z m 34.90625,0 30.28125,0 0,30.25 -30.28125,0 0,-30.25 z m 34.9375,0 30.28125,0 0,30.25 -30.28125,0 0,-30.25 z"
         id="path8-1"
         inkscape:connector-curvature="0" /><path
         style="fill:#686868;fill-opacity:1;stroke:none"
         d="m -514.125,385.78125 c -4.61242,0 -8.34375,3.73217 -8.34375,8.34375 0,4.61159 3.73133,8.34375 8.34375,8.34375 4.61159,0 8.34375,-3.73216 8.34375,-8.34375 0,-4.61158 -3.73216,-8.34375 -8.34375,-8.34375 z m 0,2.375 c 0.7641,0 1.48377,0.14535 2.15625,0.40625 -0.72892,0.42132 -1.21875,1.19058 -1.21875,2.09375 0,1.34822 1.08928,2.46875 2.4375,2.46875 0.92362,0 1.74148,-0.52368 2.15625,-1.28125 0.29287,0.70603 0.4375,1.46807 0.4375,2.28125 0,3.30265 -2.66529,6 -5.96875,6 -3.30265,0 -6,-2.69735 -6,-6 0,-3.30427 2.69735,-5.96875 6,-5.96875 z"
         id="path36-8"
         inkscape:connector-curvature="0" /><path
         style="fill:#686868;fill-opacity:1;stroke:none"
         inkscape:connector-curvature="0"
         d="m -661.84673,368.47587 388.49375,0 c -8.45909,-2.14585 -26.76392,-5.04436 -23.74516,-16.13034 -15.38097,17.79844 -52.47498,12.48656 -61.83641,3.71005 -10.42497,15.12001 -71.11358,9.37289 -75.34641,-2.40601 -13.06904,15.33761 -53.5663,15.33761 -66.63616,0 -4.23446,11.7789 -64.92226,17.52602 -75.34805,2.40601 -9.36144,8.77651 -46.45216,14.08839 -61.83476,-3.71005 3.01876,11.08598 -15.28608,13.98449 -23.7468,16.13034"
         id="path40-0" /></g></g></svg>